<svg xmlns="http://www.w3.org/2000/svg" viewBox="0 0 800 500">
  <defs>
    <linearGradient id="bg" x1="0" y1="0" x2="1" y2="1">
      <stop offset="0" stop-color="#0b0f12"/>
      <stop offset="1" stop-color="#121b16"/>
    </linearGradient>
  </defs>
  <rect width="800" height="500" fill="url(#bg)"/>
  <circle cx="680" cy="420" r="200" fill="#6dcb4e" opacity="0.05"/>

  <g transform="translate(120,150)">
    <rect x="-30" y="-52" width="620" height="210" rx="20" fill="#161d21" stroke="#22302a"/>
    <g transform="translate(20,10)">
<path transform="translate(0,0) scale(2.1)" d="M25 2 L31 18 L48 18 L34 29 L39 46 L25 36 L11 46 L16 29 L2 18 L19 18 Z" fill="#6dcb4e" stroke="#6dcb4e" stroke-width="2"/><path transform="translate(110,0) scale(2.1)" d="M25 2 L31 18 L48 18 L34 29 L39 46 L25 36 L11 46 L16 29 L2 18 L19 18 Z" fill="#6dcb4e" stroke="#6dcb4e" stroke-width="2"/><path transform="translate(220,0) scale(2.1)" d="M25 2 L31 18 L48 18 L34 29 L39 46 L25 36 L11 46 L16 29 L2 18 L19 18 Z" fill="#6dcb4e" stroke="#6dcb4e" stroke-width="2"/><path transform="translate(330,0) scale(2.1)" d="M25 2 L31 18 L48 18 L34 29 L39 46 L25 36 L11 46 L16 29 L2 18 L19 18 Z" fill="#6dcb4e" stroke="#6dcb4e" stroke-width="2"/><path transform="translate(440,0) scale(2.1)" d="M25 2 L31 18 L48 18 L34 29 L39 46 L25 36 L11 46 L16 29 L2 18 L19 18 Z" fill="none" stroke="#6dcb4e" stroke-width="2"/>
    </g>
  </g>
  <text x="120" y="368" font-family="monospace" font-size="64" fill="#f2f5f3">8.4<tspan fill="#5c6a63" font-size="34">/10</tspan></text>
  <text x="360" y="368" font-family="monospace" font-size="24" fill="#6dcb4e">ŷ = predicted rating</text>
  <text x="60" y="452" font-family="monospace" font-size="24" fill="#5c6a63">regression + neural nets · R, SAS</text>
</svg>
