<svg xmlns="http://www.w3.org/2000/svg" viewBox="0 0 800 500">
  <defs>
    <linearGradient id="bg" x1="0" y1="0" x2="1" y2="1">
      <stop offset="0" stop-color="#0b0f12"/>
      <stop offset="1" stop-color="#121b16"/>
    </linearGradient>
  </defs>
  <rect width="800" height="500" fill="url(#bg)"/>
  <circle cx="690" cy="100" r="200" fill="#6dcb4e" opacity="0.05"/>

  <path d="M170 350 Q300 180 420 260 Q540 340 640 150" fill="none" stroke="#6dcb4e" stroke-width="5" stroke-dasharray="4 14" stroke-linecap="round"/>
  <g fill="#6dcb4e">
    <path d="M170 300 q-34 40 0 74 q34 -34 0 -74 z M170 322 a12 12 0 1 0 0.1 0 z" fill-rule="evenodd"/>
    <path d="M640 100 q-34 40 0 74 q34 -34 0 -74 z M640 122 a12 12 0 1 0 0.1 0 z" fill-rule="evenodd"/>
  </g>
  <g transform="translate(340,300)">
    <rect x="0" y="18" width="150" height="44" rx="16" fill="#f2f5f3"/>
    <path d="M28 20 q18 -26 50 -26 q34 0 46 26 z" fill="#f2f5f3"/>
    <circle cx="38" cy="66" r="15" fill="#0b0f12" stroke="#5c6a63" stroke-width="5"/>
    <circle cx="116" cy="66" r="15" fill="#0b0f12" stroke="#5c6a63" stroke-width="5"/>
  </g>
  <text x="60" y="452" font-family="monospace" font-size="24" fill="#5c6a63">SELECT rider, driver FROM rides;</text>
</svg>
