<svg xmlns="http://www.w3.org/2000/svg" viewBox="0 0 800 500">
  <defs>
    <linearGradient id="bg" x1="0" y1="0" x2="1" y2="1">
      <stop offset="0" stop-color="#0b0f12"/>
      <stop offset="1" stop-color="#121b16"/>
    </linearGradient>
  </defs>
  <rect width="800" height="500" fill="url(#bg)"/>
  <circle cx="140" cy="110" r="200" fill="#6dcb4e" opacity="0.05"/>

  <path d="M250 90 q-95 120 0 205 q95 -85 0 -205 z" fill="none" stroke="#6dcb4e" stroke-width="7"/>
  <path d="M250 152 q-52 66 0 113 q52 -47 0 -113 z" fill="#6dcb4e" opacity="0.25"/>
  <g stroke="#22302a" stroke-width="2"><line x1="420" y1="110" x2="420" y2="380" /><line x1="420" y1="380" x2="740" y2="380"/></g>
  <path d="M430 150 L520 190 L590 250 L660 300 L730 345 L730 380 L430 380 Z" fill="#6dcb4e" opacity="0.15"/>
  <path d="M430 150 L520 190 L590 250 L660 300 L730 345" fill="none" stroke="#6dcb4e" stroke-width="6" stroke-linecap="round"/>
  <path d="M690 300 l40 45 -52 -6 z" fill="#6dcb4e"/>
  <text x="60" y="452" font-family="monospace" font-size="24" fill="#5c6a63">fresh water per capita, 1960→2050</text>
</svg>
