<?xml version="1.0" encoding="UTF-8"?>
<svg xmlns="http://www.w3.org/2000/svg" xmlns:xlink="http://www.w3.org/1999/xlink" width="1000" height="1000" viewBox="0 0 1000 1000">
<rect x="-100" y="-100" width="1200" height="1200" fill="rgb(0%, 0%, 0%)" fill-opacity="1"/>
<path fill-rule="nonzero" fill="rgb(100%, 100%, 100%)" fill-opacity="1" d="M 742.679688 672.457031 L 701.226562 672.457031 L 701.226562 636.539062 L 742.679688 636.539062 C 750.222656 636.539062 755.285156 638.035156 757.867188 641.027344 C 760.453125 644.023438 761.660156 648.511719 761.496094 654.496094 C 761.660156 660.566406 760.453125 665.074219 757.867188 668.027344 C 755.285156 670.980469 750.222656 672.457031 742.679688 672.457031 M 789.171875 734.078125 L 762.480469 688.445312 C 769.289062 686.890625 774.945312 683.507812 779.457031 678.300781 C 783.964844 673.09375 786.300781 664.992188 786.464844 654.007812 C 786.300781 639.902344 782.078125 630.226562 773.796875 624.976562 C 765.515625 619.730469 753.914062 617.230469 738.988281 617.476562 L 688.191406 617.476562 C 684.089844 617.476562 681.136719 618.132812 679.332031 619.441406 C 677.53125 620.757812 676.628906 622.847656 676.628906 625.71875 L 676.628906 733.34375 C 676.628906 735.226562 677.613281 736.171875 679.578125 736.171875 L 701.226562 736.171875 L 701.226562 701.484375 C 701.144531 697.878906 702.273438 695.210938 704.609375 693.488281 C 706.949219 691.769531 710.78125 690.90625 716.109375 690.90625 L 738.128906 690.90625 L 762.113281 734.203125 C 762.441406 734.859375 762.851562 735.351562 763.34375 735.679688 C 763.835938 736.007812 764.53125 736.171875 765.433594 736.171875 L 788.066406 736.171875 C 788.804688 736.089844 789.234375 735.820312 789.359375 735.371094 C 789.480469 734.921875 789.417969 734.488281 789.171875 734.078125 M 443.050781 717.351562 L 399.015625 717.351562 L 399.015625 695.335938 C 398.933594 691.726562 400.0625 689.0625 402.398438 687.339844 C 404.738281 685.617188 408.570312 684.757812 413.898438 684.757812 L 443.050781 684.757812 C 449.9375 684.757812 454.671875 686.109375 457.257812 688.816406 C 459.839844 691.519531 461.050781 695.621094 460.886719 701.113281 C 461.050781 706.527344 459.839844 710.585938 457.257812 713.292969 C 454.671875 715.996094 449.9375 717.351562 443.050781 717.351562 M 399.015625 636.296875 L 438.5 636.296875 C 444.894531 636.296875 449.300781 637.546875 451.722656 640.046875 C 454.140625 642.546875 455.308594 646.382812 455.226562 651.546875 C 455.308594 656.714844 454.140625 660.566406 451.722656 663.109375 C 449.300781 665.648438 444.894531 666.921875 438.5 666.921875 L 399.015625 666.921875 Z M 466.421875 673.5625 C 471.257812 671.019531 474.765625 667.496094 476.9375 662.984375 C 479.109375 658.476562 480.195312 653.351562 480.195312 647.609375 C 479.785156 634.816406 475.296875 626.496094 466.730469 622.644531 C 458.160156 618.785156 448.132812 617.066406 436.65625 617.476562 L 386.101562 617.476562 C 381.917969 617.476562 378.925781 618.132812 377.121094 619.441406 C 375.320312 620.757812 374.457031 622.847656 374.539062 625.71875 L 374.539062 729.160156 C 374.539062 731.535156 375.214844 733.300781 376.570312 734.449219 C 377.921875 735.597656 380.199219 736.171875 383.394531 736.171875 L 445.632812 736.171875 C 457.605469 736.253906 467.242188 733.730469 474.539062 728.605469 C 481.835938 723.480469 485.609375 715.058594 485.855469 703.328125 C 485.855469 696.113281 484.277344 689.820312 481.117188 684.449219 C 477.960938 679.078125 473.0625 675.449219 466.421875 673.5625 M 624.105469 636.785156 C 625.007812 636.785156 625.707031 636.621094 626.199219 636.296875 C 626.691406 635.96875 627.101562 635.476562 627.425781 634.816406 L 633.824219 618.828125 C 634.152344 617.925781 633.824219 617.476562 632.839844 617.476562 L 543.296875 617.476562 C 539.195312 617.476562 536.242188 618.132812 534.441406 619.441406 C 532.636719 620.757812 531.734375 622.847656 531.734375 625.71875 L 531.734375 729.160156 C 531.734375 731.535156 532.410156 733.300781 533.761719 734.449219 C 535.117188 735.597656 537.390625 736.171875 540.589844 736.171875 L 624.105469 736.171875 C 625.007812 736.171875 625.707031 736.007812 626.199219 735.679688 C 626.691406 735.351562 627.101562 734.859375 627.425781 734.203125 L 633.824219 718.335938 C 634.152344 717.351562 633.824219 716.859375 632.839844 716.859375 L 556.578125 716.859375 L 556.578125 695.824219 C 556.496094 692.21875 557.605469 689.554688 559.902344 687.832031 C 562.195312 686.109375 566.007812 685.246094 571.339844 685.246094 L 604.425781 685.246094 C 605.328125 685.246094 606.027344 685.085938 606.519531 684.757812 C 607.007812 684.429688 607.417969 683.9375 607.746094 683.28125 L 613.898438 668.027344 C 614.226562 667.046875 613.898438 666.554688 612.914062 666.554688 L 556.578125 666.554688 L 556.578125 636.785156 Z M 301.601562 620.304688 L 301.601562 686.972656 C 301.683594 698.039062 299.078125 706.074219 293.789062 711.078125 C 288.5 716.078125 280.136719 718.582031 268.699219 718.582031 C 257.257812 718.582031 248.894531 716.078125 243.605469 711.078125 C 238.316406 706.074219 235.714844 698.039062 235.796875 686.972656 L 235.796875 617.476562 L 213.53125 617.476562 C 211.566406 617.394531 210.582031 618.335938 210.582031 620.304688 L 210.582031 688.078125 C 210.828125 706.445312 216.199219 719.464844 226.695312 727.132812 C 237.191406 734.796875 251.171875 738.507812 268.636719 738.261719 C 286.101562 738.507812 300.105469 734.796875 310.640625 727.132812 C 321.179688 719.464844 326.570312 706.445312 326.816406 688.078125 L 326.816406 617.476562 L 304.550781 617.476562 C 302.585938 617.394531 301.601562 618.335938 301.601562 620.304688 "/>
<path fill-rule="nonzero" fill="rgb(100%, 100%, 100%)" fill-opacity="1" d="M 499.851562 262.582031 C 436.378906 262.582031 384.425781 311.863281 380.148438 374.25 L 466.1875 374.25 L 466.1875 351.75 C 466.1875 350.191406 467.460938 348.917969 469.023438 348.917969 L 530.683594 348.917969 C 532.246094 348.917969 533.519531 350.191406 533.519531 351.75 L 533.519531 413.414062 C 533.519531 414.972656 532.246094 416.25 530.683594 416.25 L 469.023438 416.25 C 467.460938 416.25 466.1875 414.972656 466.1875 413.414062 L 466.1875 390.917969 L 380.148438 390.917969 C 384.425781 453.300781 436.378906 502.582031 499.851562 502.582031 C 566.128906 502.582031 619.851562 448.859375 619.851562 382.582031 C 619.851562 316.308594 566.128906 262.582031 499.851562 262.582031 "/>
</svg>
